<?xml version="1.0" encoding="utf-8"?>
<!-- Generator: Adobe Illustrator 16.0.4, SVG Export Plug-In . SVG Version: 6.00 Build 0)  -->
<!DOCTYPE svg PUBLIC "-//W3C//DTD SVG 1.1//EN" "http://www.w3.org/Graphics/SVG/1.1/DTD/svg11.dtd">
<svg version="1.1" id="Layer_1" xmlns="http://www.w3.org/2000/svg" xmlns:xlink="http://www.w3.org/1999/xlink" x="0px" y="0px"
	 width="138px" height="73px" viewBox="0 0 138 73" enable-background="new 0 0 138 73" xml:space="preserve">
<g>
	<g opacity="0.4">
		<path fill="#FFFFFF" d="M136.949,31.631c-1.732-14.353-33.551-22.315-71.066-17.784C28.369,18.378-0.638,33.687,1.096,48.039
			C2.83,62.395,34.647,70.355,72.16,65.824C109.676,61.293,138.684,45.984,136.949,31.631z"/>
		
			<ellipse transform="matrix(0.9928 -0.1199 0.1199 0.9928 -4.261 8.5862)" fill="#C17B1F" stroke="#9E631B" stroke-miterlimit="10" cx="69.221" cy="39.702" rx="68.421" ry="26.177"/>
		
			<ellipse transform="matrix(0.9928 -0.1199 0.1199 0.9928 -4.2488 8.3821)" fill="#EAE5BE" cx="67.524" cy="39.495" rx="59.509" ry="22.767"/>
		<ellipse fill="#993737" cx="102.96" cy="46.018" rx="3.333" ry="1.916"/>
		<ellipse fill="#993737" cx="94.304" cy="31.392" rx="3.333" ry="1.916"/>
		<ellipse fill="#993737" cx="60.659" cy="36.955" rx="3.333" ry="1.916"/>
		<ellipse fill="#993737" cx="37.11" cy="30.174" rx="3.333" ry="1.916"/>
		<ellipse fill="#993737" cx="49.96" cy="44.684" rx="3.333" ry="1.916"/>
		<ellipse fill="#993737" cx="67.351" cy="49.875" rx="3.333" ry="1.916"/>
		<ellipse fill="#993737" cx="35.143" cy="49.012" rx="3.333" ry="1.916"/>
		<line fill="none" stroke="#C4B87A" stroke-miterlimit="10" x1="68.334" y1="39.518" x2="116.629" y2="50.402"/>
		<line fill="none" stroke="#C4B87A" stroke-miterlimit="10" x1="69.219" y1="39.973" x2="125.836" y2="22.982"/>
		<line fill="none" stroke="#C4B87A" stroke-miterlimit="10" x1="69.334" y1="39.518" x2="76.449" y2="14.278"/>
		<line fill="none" stroke="#C4B87A" stroke-miterlimit="10" x1="69.795" y1="39.824" x2="7.532" y2="55.896"/>
		<line fill="none" stroke="#C4B87A" stroke-miterlimit="10" x1="70.129" y1="39.922" x2="23.761" y2="26.177"/>
		<line fill="none" stroke="#C4B87A" stroke-miterlimit="10" x1="69.334" y1="39.518" x2="63.209" y2="63.602"/>
		<ellipse fill="#993737" cx="24.896" cy="32.257" rx="3.333" ry="1.916"/>
		<ellipse fill="#993737" cx="17.626" cy="38.686" rx="3.333" ry="1.917"/>
		<ellipse fill="#993737" cx="24.996" cy="41.031" rx="3.333" ry="1.916"/>
		<ellipse fill="#993737" cx="34.71" cy="42.602" rx="3.333" ry="1.916"/>
		<ellipse fill="#993737" cx="35.126" cy="35.185" rx="3.333" ry="1.916"/>
		<ellipse fill="#993737" cx="45.209" cy="36.851" rx="3.333" ry="1.916"/>
		<ellipse fill="#993737" cx="53.292" cy="40.018" rx="3.333" ry="1.916"/>
		<ellipse fill="#993737" cx="62.96" cy="44.852" rx="3.333" ry="1.916"/>
		<ellipse fill="#993737" cx="52.46" cy="48.352" rx="3.333" ry="1.916"/>
		<ellipse fill="#993737" cx="60.126" cy="53.018" rx="3.333" ry="1.916"/>
		<ellipse fill="#993737" cx="49.627" cy="55.602" rx="3.333" ry="1.916"/>
		<ellipse fill="#993737" cx="34.96" cy="54.018" rx="3.333" ry="1.916"/>
		<ellipse fill="#993737" cx="44.959" cy="50.686" rx="3.333" ry="1.916"/>
		<ellipse fill="#993737" cx="23.626" cy="55.352" rx="3.333" ry="1.916"/>
		<ellipse fill="#993737" cx="35.459" cy="59.518" rx="3.333" ry="1.916"/>
		<ellipse fill="#993737" cx="48.126" cy="60.852" rx="3.333" ry="1.916"/>
		<ellipse fill="#993737" cx="58.626" cy="60.852" rx="3.333" ry="1.916"/>
		<ellipse fill="#993737" cx="83.626" cy="39.352" rx="3.333" ry="1.916"/>
		<ellipse fill="#993737" cx="91.96" cy="36.351" rx="3.333" ry="1.916"/>
		<ellipse fill="#993737" cx="102.794" cy="39.186" rx="3.333" ry="1.916"/>
		<ellipse fill="#993737" cx="109.794" cy="41.186" rx="3.333" ry="1.916"/>
		<ellipse fill="#993737" cx="110.126" cy="23.852" rx="3.333" ry="1.916"/>
		<ellipse fill="#993737" cx="82.292" cy="19.685" rx="3.333" ry="1.916"/>
		<ellipse fill="#993737" cx="79.292" cy="26.685" rx="3.333" ry="1.916"/>
		<ellipse fill="#993737" cx="88.46" cy="26.267" rx="3.333" ry="1.916"/>
		<ellipse fill="#993737" cx="99.96" cy="27.017" rx="3.333" ry="1.916"/>
		<ellipse fill="#993737" cx="82.126" cy="31.851" rx="3.333" ry="1.916"/>
		<ellipse fill="#993737" cx="74.792" cy="33.851" rx="3.333" ry="1.916"/>
		<ellipse fill="#993737" cx="71.046" cy="39.824" rx="3.333" ry="1.916"/>
		<ellipse fill="#993737" cx="70.626" cy="19.018" rx="3.333" ry="1.916"/>
		<ellipse fill="#993737" cx="58.958" cy="20.184" rx="3.333" ry="1.916"/>
		<ellipse fill="#993737" cx="50.125" cy="22.184" rx="3.333" ry="1.916"/>
		<ellipse fill="#993737" cx="40.625" cy="25.017" rx="3.333" ry="1.916"/>
		<ellipse fill="#993737" cx="47.792" cy="29.684" rx="3.333" ry="1.916"/>
		<ellipse fill="#993737" cx="62.177" cy="24.845" rx="3.333" ry="1.916"/>
		<ellipse fill="#993737" cx="57.126" cy="29.768" rx="3.333" ry="1.916"/>
		<ellipse fill="#993737" cx="68.21" cy="28.851" rx="3.333" ry="1.916"/>
		<ellipse fill="#993737" cx="64.709" cy="32.601" rx="3.333" ry="1.916"/>
		<ellipse fill="#993737" cx="95.626" cy="20.518" rx="3.333" ry="1.916"/>
		<ellipse fill="#993737" cx="116.96" cy="43.852" rx="3.333" ry="1.916"/>
		<ellipse fill="#993737" cx="122.46" cy="37.186" rx="3.333" ry="1.917"/>
		<ellipse fill="#993737" cx="120.96" cy="28.518" rx="3.333" ry="1.916"/>
		<ellipse fill="#993737" cx="112.626" cy="34.018" rx="3.333" ry="1.916"/>
		<ellipse fill="#993737" cx="103.46" cy="33.851" rx="3.333" ry="1.916"/>
		<ellipse fill="#993737" cx="94.294" cy="42.518" rx="3.333" ry="1.916"/>
		<ellipse fill="#993737" cx="104.794" cy="51.018" rx="3.333" ry="1.916"/>
		<ellipse fill="#993737" cx="91.46" cy="55.352" rx="3.333" ry="1.916"/>
		<ellipse fill="#993737" cx="77.794" cy="59.018" rx="3.333" ry="1.916"/>
		<ellipse fill="#993737" cx="43.21" cy="42.352" rx="3.333" ry="1.916"/>
		<ellipse fill="#993737" cx="84.292" cy="52.352" rx="3.333" ry="1.916"/>
		<ellipse fill="#993737" cx="76.292" cy="51.852" rx="3.333" ry="1.916"/>
		<ellipse fill="#993737" cx="69.46" cy="58.352" rx="3.333" ry="1.916"/>
		<ellipse fill="#993737" cx="74.792" cy="44.352" rx="3.333" ry="1.916"/>
		<ellipse fill="#993737" cx="86.792" cy="47.518" rx="3.333" ry="1.916"/>
		<ellipse fill="#993737" cx="95.96" cy="49.352" rx="3.333" ry="1.916"/>
		<ellipse fill="#993737" cx="26.959" cy="48.352" rx="3.333" ry="1.916"/>
		<ellipse fill="#993737" cx="14.293" cy="46.684" rx="3.333" ry="1.916"/>
		<g>
			<g>
				<path fill="#C17B1F" d="M62.125,64.518c0.611,0,1.223,0,1.834,0c0.593,0,0.644-0.791,0.133-0.982
					c-0.422-0.156-0.849-0.252-1.299-0.268c0,0.334,0,0.668,0,1c0.341-0.021,0.663-0.141,1-0.166
					c0.523-0.043,0.726-0.896,0.133-0.982c-0.523-0.076-0.999-0.02-1.516,0.082c-0.605,0.119-0.377,0.916,0.133,0.982
					c0.624,0.082,1.188-0.057,1.752-0.318c0.436-0.201,0.239-0.775-0.119-0.914c-0.496-0.189-1.03-0.094-1.516,0.084
					c-0.513,0.189-0.458,0.984,0.133,0.982c0.55,0,1.089-0.021,1.633-0.102c0.563-0.084,0.422-1-0.133-0.982
					c-0.505,0.016-0.994,0.154-1.5,0.168c-0.644,0.018-0.646,1.018,0,1c0.506-0.014,0.996-0.152,1.5-0.168
					c-0.044-0.326-0.089-0.654-0.133-0.982c-0.453,0.068-0.911,0.066-1.367,0.066c0.044,0.328,0.089,0.654,0.133,0.982
					c0.33-0.121,0.644-0.215,0.984-0.084c-0.04-0.305-0.08-0.609-0.119-0.914c-0.409,0.189-0.804,0.24-1.248,0.182
					c0.044,0.328,0.089,0.654,0.133,0.982c0.324-0.064,0.652-0.131,0.984-0.082c0.044-0.328,0.089-0.656,0.133-0.982
					c-0.339,0.027-0.662,0.145-1,0.166c-0.641,0.041-0.648,0.979,0,1c0.362,0.014,0.694,0.107,1.033,0.232
					c0.044-0.328,0.089-0.654,0.133-0.982c-0.611,0-1.223,0-1.834,0C61.481,63.518,61.481,64.518,62.125,64.518L62.125,64.518z"/>
			</g>
		</g>
		<g>
			<g>
				<path fill="#C17B1F" d="M75.576,14.75c0.486,0.097,0.971,0.174,1.467,0.185c0-0.333,0-0.667,0-1
					c-0.627,0.081-1.258,0.092-1.883,0.185c-0.48,0.071-0.48,0.894,0,0.964c0.598,0.088,1.201,0.107,1.799,0.185
					c-0.043-0.327-0.088-0.655-0.133-0.982c-0.512,0.213-1.076,0.092-1.617,0.148c-0.629,0.066-0.656,0.983,0,1
					c0.418,0.011,0.832,0.073,1.25,0.083c-0.043-0.327-0.088-0.655-0.133-0.982c-0.494,0.111-1.004,0.138-1.5,0.25
					c-0.498,0.112-0.457,0.83,0,0.964c0.9,0.263,1.803,0.091,2.684-0.167c0.617-0.18,0.354-1.145-0.266-0.964
					c-0.709,0.207-1.424,0.379-2.152,0.167c0,0.321,0,0.643,0,0.964c0.496-0.111,1.006-0.138,1.5-0.25
					c0.566-0.127,0.418-0.968-0.133-0.982c-0.418-0.011-0.832-0.073-1.25-0.083c0,0.333,0,0.667,0,1
					c0.631-0.066,1.283,0.065,1.883-0.185c0.535-0.222,0.439-0.909-0.133-0.982c-0.51-0.065-1.025-0.074-1.533-0.148
					c0,0.321,0,0.643,0,0.964c0.535-0.079,1.08-0.08,1.617-0.149c0.619-0.081,0.664-0.986,0-1c-0.408-0.008-0.801-0.069-1.201-0.148
					C75.213,13.66,74.945,14.624,75.576,14.75L75.576,14.75z"/>
			</g>
		</g>
		<g>
			<g>
				<path fill="#C17B1F" d="M24.243,25.369c-0.45,0.137-0.765,0.358-1.049,0.729c-0.285,0.373,0.182,0.829,0.564,0.734
					c0.479-0.118,0.932-0.315,1.417-0.417c-0.162-0.278-0.324-0.557-0.486-0.835c-0.265,0.208-0.508,0.446-0.815,0.588
					c-0.451,0.209-0.23,0.961,0.252,0.932c0.359-0.022,0.685-0.117,1.022-0.238c0.37-0.132,0.915-0.424,1.309-0.247
					c-0.034-0.262-0.067-0.523-0.101-0.785c-0.466,0.415-1.181,0.537-1.779,0.622c-0.559,0.078-0.426,1.023,0.133,0.982
					c0.691-0.052,1.248-0.527,1.917-0.583c-0.084-0.311-0.168-0.621-0.252-0.932c-0.357,0.16-0.826,0.214-1.113,0.502
					c-0.306,0.306-0.185,0.777,0.196,0.945c0.584,0.258,1.094-0.604,0.505-0.863c-0.008,0-0.015,0.001-0.023,0.002
					c0.049,0.118,0.098,0.236,0.146,0.354c-0.222,0.285-0.248,0.372-0.078,0.261c0.104-0.056,0.226-0.088,0.336-0.126
					c0.181-0.064,0.359-0.131,0.535-0.21c0.45-0.202,0.231-0.972-0.252-0.932c-0.687,0.058-1.242,0.533-1.917,0.583
					c0.044,0.327,0.088,0.655,0.133,0.982c0.792-0.111,1.611-0.336,2.221-0.878c0.225-0.2,0.186-0.656-0.101-0.785
					c-1.052-0.473-1.813,0.286-2.835,0.348c0.084,0.311,0.168,0.621,0.252,0.932c0.38-0.176,0.69-0.488,1.018-0.745
					c0.428-0.335-0.047-0.928-0.486-0.835c-0.484,0.101-0.937,0.299-1.417,0.417c0.188,0.245,0.376,0.489,0.564,0.734
					c0.121-0.159,0.268-0.214,0.451-0.271C25.124,26.146,24.861,25.18,24.243,25.369L24.243,25.369z"/>
			</g>
		</g>
		<g>
			<g>
				<path fill="#C17B1F" d="M6.456,55.449c0.515,0.27,0.891,0.6,1.238,1.07c0.262-0.201,0.523-0.404,0.785-0.605
					c-0.146-0.271-0.292-0.543-0.437-0.814c-0.211,0.162-0.422,0.322-0.633,0.482c0.588,0.164,1.041,0.547,1.547,0.867
					c0.352,0.221,0.893-0.148,0.734-0.564c-0.279-0.738-0.686-1.238-1.312-1.717c-0.397-0.303-0.789,0.195-0.734,0.564
					c0.158,1.08,1.143,2.016,2.182,2.268c0.404,0.098,0.668-0.244,0.615-0.615c-0.113-0.801-0.542-1.361-1.045-1.971
					c-0.202,0.262-0.404,0.523-0.606,0.785c0.501,0.271,0.902,0.67,1.417,0.916c0.454,0.217,0.92-0.221,0.684-0.684
					c-0.225-0.439-0.522-0.799-0.828-1.186c-0.236,0.236-0.471,0.473-0.707,0.707c0.326,0.297,0.667,0.562,1.018,0.828
					c0.397,0.301,0.79-0.193,0.734-0.564c-0.079-0.525-0.312-0.869-0.712-1.221c-0.162,0.279-0.324,0.557-0.486,0.836
					c0.456,0.074,0.773,0.33,0.951,0.77c0.144-0.25,0.288-0.5,0.432-0.752c-0.18,0.016-0.131-0.078,0.068,0.336
					c0.262-0.201,0.523-0.402,0.785-0.605c-0.138-0.203-0.25-0.42-0.338-0.648c-0.188,0.244-0.376,0.49-0.564,0.734
					c0.232,0.123,0.464,0.248,0.696,0.371c0.34,0.264,1.045,0.039,0.835-0.486c-0.055-0.139-0.111-0.277-0.167-0.416
					c-0.278,0.162-0.557,0.324-0.835,0.486c0.057,0.076,0.115,0.154,0.172,0.23c0.288-0.168,0.576-0.336,0.863-0.504
					c-0.137-0.197-0.249-0.344-0.412-0.518c-0.383-0.406-1.126,0.145-0.785,0.605c0.379,0.516,0.75,0.84,1.346,1.096
					c0.128-0.305,0.257-0.609,0.385-0.914c-0.6-0.221-0.898-0.586-1.279-1.037c-0.417-0.492-1.122,0.219-0.707,0.707
					c0.513,0.605,0.978,1.021,1.721,1.295c0.53,0.195,0.904-0.689,0.385-0.914c-0.406-0.127-0.735-0.373-0.987-0.736
					c-0.262,0.201-0.523,0.404-0.785,0.605c0.085,0.105,0.17,0.211,0.255,0.314c0.363,0.521,1.213,0.047,0.863-0.504
					c-0.105-0.166-0.196-0.291-0.328-0.434c-0.324-0.352-1.024,0.012-0.835,0.486c0.055,0.139,0.111,0.277,0.167,0.416
					c0.278-0.162,0.557-0.324,0.835-0.486c-0.37-0.285-0.707-0.449-1.137-0.629c-0.458-0.189-0.715,0.393-0.564,0.734
					c0.145,0.33,0.273,0.57,0.495,0.852c0.373,0.475,1.015-0.129,0.785-0.605c-1.354-2.82-3.17,1.346-0.932,1.168
					c0.402-0.031,0.59-0.395,0.432-0.752c-0.31-0.699-0.841-0.994-1.549-1.23c-0.467-0.154-0.861,0.508-0.486,0.836
					c0.272,0.176,0.424,0.436,0.455,0.779c0.245-0.188,0.489-0.375,0.734-0.564c-0.289-0.203-0.561-0.428-0.816-0.672
					c-0.488-0.443-1.1,0.211-0.707,0.707c0.25,0.316,0.488,0.623,0.672,0.982c0.228-0.227,0.456-0.455,0.684-0.684
					c-0.511-0.244-0.917-0.646-1.417-0.916c-0.522-0.283-0.959,0.355-0.606,0.785c0.401,0.486,0.698,0.898,0.788,1.529
					c0.205-0.205,0.41-0.41,0.615-0.615c-0.733-0.178-1.373-0.814-1.484-1.568c-0.245,0.189-0.489,0.377-0.734,0.564
					c0.407,0.273,0.692,0.646,0.854,1.119c0.245-0.189,0.489-0.377,0.734-0.564c-0.589-0.373-1.108-0.777-1.786-0.969
					c-0.292-0.08-0.663,0.154-0.633,0.482c0.059,0.652,0.213,1.1,0.73,1.521c0.405,0.33,1.148-0.113,0.785-0.605
					c-0.448-0.609-0.923-1.076-1.596-1.43C6.391,54.287,5.885,55.148,6.456,55.449L6.456,55.449z"/>
			</g>
		</g>
		<g>
			<g>
				<path fill="#C17B1F" d="M124.291,23.282c0.625,0.29,1.092,0.794,1.666,1.167c0.428,0.278,0.934-0.264,0.684-0.684
					c-0.324-0.546-0.754-0.953-1.244-1.351c-0.203,0.262-0.404,0.523-0.605,0.785c0.201,0.159,0.363,0.35,0.486,0.571
					c0.145-0.251,0.289-0.501,0.432-0.752c-0.486,0.02-0.785-0.157-1.164-0.432c-0.25-0.181-0.678-0.001-0.734,0.299
					c-0.119,0.635,0.104,1.032,0.545,1.486c0.119-0.285,0.236-0.569,0.354-0.854c-0.447,0.042-0.797-0.58-1.283-0.648
					c-0.438-0.062-0.771,0.312-0.564,0.734c0.115,0.235,0.133,0.51,0.25,0.75c0.1-0.245,0.199-0.49,0.299-0.734
					c-0.744,0.255-1.156-0.113-1.783-0.45c-0.084,0.311-0.168,0.621-0.252,0.932c0.52,0.013,1.014,0.06,1.498,0.265
					c0.586,0.249,1.098-0.612,0.504-0.863c-0.65-0.277-1.295-0.384-2.002-0.401c-0.492-0.012-0.689,0.696-0.252,0.932
					c0.902,0.486,1.512,0.907,2.553,0.55c0.32-0.109,0.445-0.433,0.299-0.734c-0.115-0.235-0.133-0.51-0.25-0.75
					c-0.189,0.245-0.377,0.49-0.564,0.734c0.631,0.09,0.791,0.755,1.549,0.685c0.422-0.04,0.678-0.52,0.354-0.854
					c-0.164-0.127-0.262-0.299-0.287-0.514c-0.246,0.1-0.49,0.199-0.734,0.299c0.518,0.376,1.02,0.595,1.668,0.568
					c0.361-0.015,0.646-0.419,0.432-0.752c-0.244-0.381-0.471-0.671-0.846-0.929c-0.465-0.321-1.047,0.427-0.605,0.785
					c0.42,0.341,0.809,0.678,1.088,1.149c0.229-0.228,0.457-0.456,0.684-0.684c-0.578-0.375-1.033-0.874-1.666-1.167
					C124.213,22.15,123.705,23.012,124.291,23.282L124.291,23.282z"/>
			</g>
		</g>
		<g>
			<g>
				<path fill="#C17B1F" d="M127.225,24.181c-0.684-1.081-1.373-2.329-2.766-2.498c-0.639-0.078-0.631,0.923,0,1
					c0.92,0.111,1.469,1.315,1.902,2.002C126.703,25.229,127.57,24.728,127.225,24.181L127.225,24.181z"/>
			</g>
		</g>
		<g>
			<g>
				<path fill="#C17B1F" d="M122.877,24.085c-0.539-0.265-0.865-0.762-1.451-0.967c-0.611-0.214-0.871,0.752-0.266,0.964
					c0.463,0.163,0.766,0.647,1.213,0.866C122.949,25.231,123.457,24.369,122.877,24.085L122.877,24.085z"/>
			</g>
		</g>
		<g>
			<g>
				<path fill="#C17B1F" d="M114.293,51.268c1.25,0.082,2.145-0.764,3.332-0.916c-0.043-0.328-0.088-0.654-0.133-0.982
					c-0.531,0.146-0.951,0.557-1.398,0.861c-0.121,0.082-0.938,0.668-0.355,0.295c0.254-0.162,0.508-0.297,0.74-0.488
					c0.336-0.275,0.062-0.879-0.354-0.854c-1.105,0.066-2.045,0.748-3.166,0.668c0.119,0.283,0.236,0.568,0.354,0.854
					c0.332-0.258,0.713-0.549,1.146-0.604c-0.043-0.328-0.088-0.654-0.133-0.982c-0.635,0.201-1.199,0.549-1.834,0.75
					c-0.611,0.195-0.35,1.16,0.266,0.965c0.635-0.203,1.201-0.551,1.834-0.75c0.514-0.162,0.449-1.057-0.133-0.982
					c-0.734,0.092-1.275,0.447-1.854,0.896c-0.379,0.293-0.027,0.826,0.354,0.854c1.15,0.082,2.057-0.6,3.166-0.668
					c-0.117-0.285-0.234-0.57-0.354-0.854c-0.434,0.355-2.092,1.264-0.898,1.953c1.197,0.691,1.865-0.668,2.885-0.949
					c0.527-0.146,0.439-1.057-0.133-0.982c-1.16,0.15-2.148,0.994-3.332,0.916C113.648,50.225,113.652,51.225,114.293,51.268
					L114.293,51.268z"/>
			</g>
		</g>
	</g>
	
		<text transform="matrix(0.9886 -0.1504 0.1504 0.9886 10.8838 32.9727)" fill="#2F7F21" stroke="#28631C" stroke-miterlimit="10" font-family="'Biko-Bold'" font-size="34">Express</text>
	
		<text transform="matrix(0.9886 -0.1504 0.1504 0.9886 36.3027 72.0205)" fill="#2F7F21" stroke="#28631C" stroke-miterlimit="10" font-family="'Biko-Bold'" font-size="34">Pizza!</text>
</g>
</svg>
